<?xml version="1.0" standalone="no"?>
<!DOCTYPE svg PUBLIC "-//W3C//DTD SVG 20010904//EN"
 "http://www.w3.org/TR/2001/REC-SVG-20010904/DTD/svg10.dtd">
<svg version="1.0" xmlns="http://www.w3.org/2000/svg"
 width="2037.000000pt" height="1549.000000pt" viewBox="0 0 2037.000000 1549.000000"
 preserveAspectRatio="xMidYMid meet">
<metadata>
Created by potrace 1.16, written by Peter Selinger 2001-2019
</metadata>
<g transform="translate(0.000000,1549.000000) scale(0.100000,-0.100000)"
fill="#000000" stroke="none">
<path d="M10133 14500 c-44 -10 -76 -33 -110 -77 -25 -32 -28 -45 -28 -108 0
-59 4 -78 24 -107 42 -61 85 -83 161 -83 57 0 73 4 108 29 72 50 103 157 68
239 -17 43 -76 93 -123 106 -43 12 -54 12 -100 1z"/>
<path d="M8722 14339 c-91 -46 -128 -165 -80 -259 58 -112 205 -138 299 -53
43 39 63 88 60 151 -1 47 -27 107 -58 134 -55 50 -151 61 -221 27z"/>
<path d="M11460 14341 c-19 -10 -48 -35 -64 -55 -56 -68 -45 -199 21 -258 60
-55 165 -63 235 -19 97 62 117 209 40 294 -50 56 -164 75 -232 38z"/>
<path d="M7465 13930 c-52 -11 -94 -39 -123 -82 -37 -57 -38 -155 -2 -209 51
-77 148 -108 233 -75 97 37 138 125 112 243 -6 27 -59 89 -89 105 -30 16 -95
25 -131 18z"/>
<path d="M12791 13930 c-109 -46 -153 -168 -100 -277 36 -74 138 -118 216 -93
158 51 194 254 62 346 -45 31 -133 43 -178 24z"/>
<path d="M13965 13233 c-68 -36 -105 -96 -105 -173 0 -184 234 -261 347 -113
25 33 28 44 28 114 0 71 -2 80 -31 116 -17 21 -46 46 -65 55 -43 22 -134 22
-174 1z"/>
<path d="M6225 13226 c-90 -40 -131 -166 -85 -262 30 -61 85 -95 162 -101 59
-5 66 -3 112 28 27 19 58 50 68 69 20 39 24 123 7 167 -13 34 -55 80 -91 99
-34 18 -133 18 -173 0z"/>
<path d="M9555 13206 c-87 -40 -120 -146 -72 -230 58 -102 208 -105 274 -6 44
64 23 175 -43 223 -33 24 -120 32 -159 13z"/>
<path d="M10660 13198 c-76 -52 -99 -132 -61 -210 55 -115 231 -117 285 -4 21
45 20 113 -3 156 -39 74 -153 104 -221 58z"/>
<path d="M8487 12979 c-80 -19 -121 -75 -119 -161 2 -93 64 -152 162 -153 68
0 114 29 141 89 24 53 24 90 -2 142 -33 70 -104 102 -182 83z"/>
<path d="M11754 12966 c-100 -61 -100 -216 -2 -276 43 -26 121 -26 168 -1 41
21 80 89 80 138 0 125 -140 204 -246 139z"/>
<path d="M12819 12531 c-79 -25 -124 -93 -116 -174 4 -51 26 -88 71 -121 39
-29 133 -29 173 0 99 74 99 217 -2 275 -38 22 -92 30 -126 20z"/>
<path d="M7432 12513 c-101 -49 -121 -183 -40 -262 52 -51 165 -56 215 -10 58
55 73 149 34 213 -41 65 -139 94 -209 59z"/>
<path d="M15035 12328 c-80 -17 -137 -79 -151 -165 -8 -52 9 -104 49 -150 39
-44 82 -63 142 -63 60 0 103 19 142 63 58 66 65 149 20 230 -37 65 -123 102
-202 85z"/>
<path d="M5205 12303 c-70 -37 -105 -95 -105 -173 0 -121 89 -198 215 -188
152 13 220 203 116 322 -46 53 -162 73 -226 39z"/>
<path d="M9661 12233 c-47 -24 -71 -67 -71 -129 0 -60 25 -99 76 -120 45 -19
70 -18 119 6 70 34 96 121 55 187 -39 64 -116 88 -179 56z"/>
<path d="M10580 12232 c-84 -42 -99 -171 -27 -226 122 -93 276 32 211 170 -19
39 -76 74 -121 74 -15 0 -44 -8 -63 -18z"/>
<path d="M8763 12040 c-126 -56 -93 -245 44 -257 92 -8 159 58 150 146 -10 98
-104 151 -194 111z"/>
<path d="M11505 12053 c-60 -16 -97 -69 -97 -141 0 -116 148 -174 231 -91 52
52 54 144 3 194 -41 41 -80 52 -137 38z"/>
<path d="M13716 11870 c-62 -19 -106 -83 -106 -155 0 -78 43 -135 118 -154 76
-21 147 11 183 81 66 129 -55 270 -195 228z"/>
<path d="M6517 11847 c-56 -34 -77 -72 -77 -138 0 -129 121 -200 239 -140 77
40 105 160 54 229 -53 71 -147 93 -216 49z"/>
<path d="M10112 11851 c-38 -25 -52 -55 -52 -118 0 -38 5 -50 34 -79 33 -33
50 -39 111 -35 98 5 141 140 67 214 -40 40 -111 48 -160 18z"/>
<path d="M9265 11749 c-69 -64 -55 -168 28 -208 101 -48 207 39 178 147 -16
57 -50 84 -115 90 -50 4 -56 2 -91 -29z"/>
<path d="M10952 11766 c-57 -31 -77 -106 -46 -172 39 -81 167 -86 218 -10 9
15 16 46 16 77 0 45 -4 55 -34 85 -29 29 -40 34 -82 34 -27 -1 -59 -6 -72 -14z"/>
<path d="M12345 11678 c-53 -13 -88 -60 -93 -122 -4 -45 0 -60 18 -85 85 -121
262 -55 247 92 -8 84 -87 138 -172 115z"/>
<path d="M7930 11673 c-54 -20 -98 -103 -84 -160 31 -128 199 -149 259 -33 55
106 -62 234 -175 193z"/>
<path d="M11774 11519 c-47 -13 -76 -51 -82 -107 -5 -61 15 -104 62 -126 96
-45 186 12 186 119 0 40 -5 52 -34 81 -19 19 -42 34 -52 35 -11 0 -26 2 -34 3
-8 2 -29 -1 -46 -5z"/>
<path d="M8482 11500 c-94 -58 -70 -201 39 -230 35 -10 47 -8 86 11 89 43 98
154 17 218 -35 27 -98 28 -142 1z"/>
<path d="M15805 11201 c-76 -34 -124 -121 -111 -200 8 -50 56 -121 96 -142 56
-30 145 -26 201 10 126 79 111 270 -26 332 -22 10 -58 19 -80 19 -22 0 -58 -9
-80 -19z"/>
<path d="M4410 11195 c-100 -46 -145 -155 -105 -253 33 -77 91 -115 176 -115
76 0 126 26 164 88 55 89 28 211 -60 265 -46 28 -129 35 -175 15z"/>
<path d="M7174 11122 c-51 -24 -78 -76 -72 -137 7 -57 32 -91 83 -111 81 -30
150 1 181 81 16 43 16 47 0 90 -31 80 -113 113 -192 77z"/>
<path d="M13058 11124 c-32 -17 -68 -81 -68 -119 0 -39 34 -98 68 -117 41 -24
107 -23 147 2 33 20 65 80 65 121 0 36 -32 90 -64 110 -37 23 -110 24 -148 3z"/>
<path d="M12483 11091 c-18 -11 -39 -31 -48 -44 -21 -32 -22 -110 -2 -140 18
-29 75 -57 112 -57 94 0 156 114 105 197 -35 57 -113 78 -167 44z"/>
<path d="M7758 11084 c-76 -41 -76 -178 0 -218 27 -14 57 -19 99 -17 12 1 38
16 57 35 31 29 36 39 36 80 0 58 -21 101 -60 121 -37 19 -97 19 -132 -1z"/>
<path d="M9790 11087 c-14 -7 -34 -29 -45 -49 -60 -111 93 -213 178 -118 40
45 38 101 -7 146 -37 37 -80 44 -126 21z"/>
<path d="M10464 11083 c-78 -65 -47 -187 51 -199 80 -10 136 59 114 140 -13
47 -41 68 -96 73 -36 3 -53 -1 -69 -14z"/>
<path d="M14488 11040 c-105 -18 -160 -132 -112 -233 36 -75 136 -106 213 -65
58 30 83 65 88 125 11 112 -77 192 -189 173z"/>
<path d="M5802 11030 c-66 -16 -112 -80 -112 -158 0 -64 30 -110 92 -140 112
-56 235 28 225 154 -4 64 -36 110 -91 135 -44 20 -62 21 -114 9z"/>
<path d="M9123 10945 c-70 -30 -82 -129 -22 -179 70 -59 179 -12 179 77 0 40
-26 84 -60 102 -35 18 -55 18 -97 0z"/>
<path d="M11124 10926 c-78 -78 -16 -200 92 -183 44 7 63 23 81 65 30 73 -25
152 -105 152 -25 0 -43 -9 -68 -34z"/>
<path d="M8490 10662 c-66 -36 -72 -135 -12 -183 22 -17 36 -20 76 -16 65 6
96 39 96 102 0 88 -84 138 -160 97z"/>
<path d="M11763 10660 c-39 -23 -56 -74 -42 -126 32 -115 209 -83 209 39 -1
89 -89 135 -167 87z"/>
<path d="M13113 10535 c-43 -19 -73 -69 -73 -124 0 -37 6 -49 39 -82 31 -31
46 -39 76 -39 90 0 154 72 135 153 -10 46 -34 75 -77 93 -40 17 -59 17 -100
-1z"/>
<path d="M7138 10524 c-47 -25 -79 -113 -57 -156 50 -97 170 -112 226 -29 74
110 -52 249 -169 185z"/>
<path d="M9843 10515 c-56 -39 -47 -139 16 -164 35 -15 93 -8 110 13 38 45 28
131 -17 155 -29 16 -84 14 -109 -4z"/>
<path d="M10405 10506 c-65 -65 -22 -166 70 -166 32 0 81 43 88 76 17 90 -94
153 -158 90z"/>
<path d="M13681 10442 c-41 -22 -71 -74 -71 -123 0 -75 80 -146 150 -133 84
15 120 58 120 142 0 104 -105 164 -199 114z"/>
<path d="M6544 10430 c-79 -51 -75 -185 6 -234 39 -22 108 -20 148 4 56 35 78
120 47 181 -34 66 -136 90 -201 49z"/>
<path d="M9289 10397 c-64 -49 -44 -156 32 -172 61 -14 119 35 119 100 0 41
-50 85 -97 85 -21 0 -45 -6 -54 -13z"/>
<path d="M10969 10397 c-39 -30 -51 -96 -24 -134 8 -12 31 -27 51 -33 83 -28
154 55 112 133 -18 34 -40 46 -83 46 -22 0 -47 -5 -56 -12z"/>
<path d="M7949 10264 c-39 -16 -69 -58 -69 -99 0 -34 25 -82 49 -95 25 -13 97
-13 122 0 25 14 49 62 49 97 0 41 -34 91 -67 99 -15 3 -33 7 -38 9 -6 1 -26
-4 -46 -11z"/>
<path d="M12334 10270 c-34 -13 -64 -59 -64 -97 0 -119 151 -158 205 -53 19
37 19 63 0 100 -26 49 -88 72 -141 50z"/>
<path d="M8756 10149 c-36 -43 -35 -91 3 -130 22 -21 39 -29 66 -29 27 0 44 8
66 29 61 62 19 161 -69 161 -33 0 -45 -6 -66 -31z"/>
<path d="M11489 10167 c-65 -50 -44 -153 35 -173 55 -13 116 33 116 89 0 35
-24 82 -45 91 -27 10 -89 6 -106 -7z"/>
<path d="M15027 10066 c-72 -26 -107 -76 -107 -151 0 -122 123 -199 229 -143
66 34 86 67 86 141 0 49 -5 69 -23 95 -42 58 -119 82 -185 58z"/>
<path d="M5251 10060 c-129 -31 -165 -203 -59 -284 51 -38 112 -43 168 -14 67
34 93 79 88 151 -5 63 -27 101 -74 129 -38 21 -82 28 -123 18z"/>
<path d="M10120 10013 c-41 -53 -5 -133 60 -133 42 0 59 9 75 41 20 38 19 62
-6 93 -16 21 -29 26 -64 26 -36 0 -47 -5 -65 -27z"/>
<path d="M9683 9987 c-76 -40 -46 -157 40 -157 45 0 77 34 77 83 0 34 -25 75
-47 78 -5 0 -18 2 -30 3 -12 1 -30 -2 -40 -7z"/>
<path d="M10603 9980 c-18 -11 -33 -28 -34 -37 -3 -46 4 -70 27 -90 67 -61
161 14 128 102 -7 17 -54 45 -76 45 -7 0 -28 -9 -45 -20z"/>
<path d="M16365 9946 c-40 -18 -80 -62 -100 -109 -17 -42 -13 -112 10 -157 30
-58 101 -100 170 -100 195 0 268 257 101 355 -49 29 -130 33 -181 11z"/>
<path d="M3845 9933 c-80 -42 -122 -118 -111 -200 13 -100 91 -166 194 -164
111 1 184 77 186 193 1 47 -4 64 -29 100 -54 77 -165 111 -240 71z"/>
<path d="M13600 9852 c-95 -47 -87 -192 13 -231 142 -54 244 142 118 226 -41
27 -84 29 -131 5z"/>
<path d="M6642 9840 c-34 -21 -62 -71 -62 -111 0 -123 185 -168 241 -58 23 46
24 68 5 114 -18 42 -69 75 -116 75 -19 0 -50 -9 -68 -20z"/>
<path d="M9233 9838 c-26 -13 -43 -55 -36 -92 12 -59 104 -78 142 -30 59 74
-19 164 -106 122z"/>
<path d="M11031 9824 c-43 -55 -11 -134 54 -134 18 0 41 3 50 6 17 7 42 52 39
72 -1 6 -2 19 -3 27 -4 56 -103 76 -140 29z"/>
<path d="M11939 9821 c-21 -22 -29 -39 -29 -66 0 -51 44 -95 95 -95 51 0 95
44 95 95 0 51 -44 95 -95 95 -27 0 -44 -8 -66 -29z"/>
<path d="M8295 9815 c-19 -18 -25 -35 -25 -65 0 -58 33 -90 95 -90 79 0 118
67 80 139 -17 34 -33 41 -86 41 -29 0 -47 -7 -64 -25z"/>
<path d="M12765 9737 c-38 -38 -46 -82 -24 -130 38 -84 173 -69 200 22 22 72
-18 130 -95 138 -42 5 -48 3 -81 -30z"/>
<path d="M7457 9732 c-15 -15 -29 -42 -33 -59 -20 -101 113 -168 187 -94 41
42 41 106 0 150 -25 27 -36 31 -78 31 -41 0 -54 -5 -76 -28z"/>
<path d="M14133 9640 c-116 -70 -62 -250 75 -250 83 0 136 56 135 141 -1 52
-21 87 -65 113 -36 22 -106 20 -145 -4z"/>
<path d="M6089 9635 c-40 -22 -62 -62 -62 -116 0 -80 58 -139 137 -139 130 0
184 167 80 249 -32 25 -114 28 -155 6z"/>
<path d="M8835 9608 c-31 -18 -44 -40 -45 -76 0 -41 40 -82 81 -82 36 0 77 37
85 76 11 58 -69 113 -121 82z"/>
<path d="M11444 9596 c-58 -50 -24 -140 52 -140 73 0 111 88 59 139 -31 32
-75 32 -111 1z"/>
<path d="M12345 9416 c-58 -25 -72 -98 -27 -145 59 -64 162 -29 162 56 0 45
-14 69 -50 88 -35 18 -46 18 -85 1z"/>
<path d="M7934 9408 c-47 -22 -58 -101 -20 -145 20 -23 32 -28 70 -28 57 0 85
26 93 83 5 36 2 45 -25 72 -32 32 -76 39 -118 18z"/>
<path d="M8489 9295 c-37 -20 -52 -60 -39 -101 20 -59 91 -74 135 -29 64 63
-16 172 -96 130z"/>
<path d="M11803 9298 c-29 -14 -47 -59 -38 -98 7 -32 46 -60 84 -60 30 0 70
41 77 77 5 27 1 37 -24 63 -32 31 -61 37 -99 18z"/>
<path d="M13142 9169 c-75 -22 -94 -127 -32 -181 69 -63 180 -15 180 77 0 42
-28 85 -65 101 -39 16 -38 16 -83 3z"/>
<path d="M7121 9144 c-60 -50 -48 -147 23 -180 74 -36 156 16 156 98 0 32 -7
47 -34 74 -44 44 -99 47 -145 8z"/>
<path d="M13932 9080 c-69 -42 -77 -137 -16 -197 27 -28 39 -33 81 -33 65 0
108 27 124 79 17 57 5 104 -37 140 -42 38 -101 42 -152 11z"/>
<path d="M6296 9069 c-41 -32 -59 -75 -52 -124 20 -128 202 -142 245 -19 18
52 9 88 -34 131 -28 28 -40 33 -83 33 -35 0 -57 -6 -76 -21z"/>
<path d="M15350 8992 c-47 -26 -72 -62 -81 -119 -6 -40 -4 -56 14 -92 30 -61
64 -84 134 -89 48 -3 64 0 92 20 58 40 76 72 76 138 -1 64 -17 96 -68 134 -38
28 -122 33 -167 8z"/>
<path d="M4872 8983 c-42 -20 -69 -55 -83 -106 -14 -51 -6 -91 27 -134 34 -44
73 -63 132 -63 61 0 108 29 141 88 72 132 -80 283 -217 215z"/>
<path d="M7649 8915 c-33 -18 -48 -59 -38 -105 9 -44 41 -70 86 -70 48 0 72
16 89 57 37 87 -52 164 -137 118z"/>
<path d="M8214 8919 c-47 -24 -57 -96 -19 -134 51 -52 139 -14 139 59 0 61
-66 102 -120 75z"/>
<path d="M12066 8909 c-21 -16 -26 -29 -26 -64 0 -53 25 -75 82 -75 47 0 78
30 78 77 0 70 -78 106 -134 62z"/>
<path d="M12617 8919 c-11 -6 -25 -26 -33 -45 -12 -29 -12 -39 -1 -66 19 -45
40 -60 87 -62 49 -1 88 33 96 85 5 28 1 41 -21 67 -22 27 -34 32 -68 32 -23 0
-50 -5 -60 -11z"/>
<path d="M14431 8773 c-45 -22 -71 -67 -71 -123 0 -107 93 -166 192 -122 102
45 105 197 4 243 -51 23 -81 23 -125 2z"/>
<path d="M5812 8760 c-114 -70 -84 -233 47 -255 84 -14 155 49 155 137 0 105
-113 172 -202 118z"/>
<path d="M16665 8605 c-181 -64 -152 -342 39 -370 183 -28 296 195 165 326
-56 56 -126 71 -204 44z"/>
<path d="M3555 8586 c-37 -17 -80 -62 -94 -99 -28 -74 -2 -181 54 -225 96 -76
250 -42 297 65 43 98 8 207 -82 253 -46 23 -130 26 -175 6z"/>
<path d="M6922 8500 c-62 -38 -70 -114 -18 -166 27 -27 42 -34 74 -34 110 0
151 144 58 201 -40 24 -73 24 -114 -1z"/>
<path d="M13320 8491 c-36 -36 -46 -73 -30 -112 31 -74 126 -95 181 -40 24 24
29 38 29 76 0 38 -5 52 -29 76 -24 24 -38 29 -76 29 -38 0 -52 -5 -75 -29z"/>
<path d="M12285 8499 c-39 -11 -55 -34 -55 -79 0 -73 84 -107 135 -55 62 61 4
157 -80 134z"/>
<path d="M8005 8475 c-32 -31 -32 -75 -2 -110 62 -73 180 4 135 88 -28 53 -92
64 -133 22z"/>
<path d="M12813 8385 c-58 -25 -77 -78 -48 -134 44 -87 175 -50 175 49 0 69
-64 111 -127 85z"/>
<path d="M7484 8381 c-57 -24 -71 -100 -28 -150 21 -25 33 -31 66 -31 82 0
128 94 76 155 -25 28 -79 40 -114 26z"/>
<path d="M6169 8270 c-44 -12 -68 -30 -84 -60 -19 -37 -19 -93 0 -130 39 -76
169 -80 219 -8 21 30 21 112 0 144 -27 41 -90 66 -135 54z"/>
<path d="M14090 8242 c-34 -34 -40 -46 -40 -81 0 -84 48 -131 136 -131 39 0
51 5 80 34 30 30 34 40 34 88 0 44 -5 60 -28 87 -25 30 -35 35 -85 39 -56 4
-58 3 -97 -36z"/>
<path d="M7943 8038 c-42 -11 -60 -46 -54 -105 2 -24 45 -53 78 -53 70 0 106
78 63 132 -24 31 -45 37 -87 26z"/>
<path d="M12349 8021 c-17 -18 -29 -40 -29 -56 0 -32 49 -85 79 -85 32 0 68
20 81 45 20 37 5 92 -30 110 -43 22 -68 19 -101 -14z"/>
<path d="M15499 7891 c-46 -15 -78 -42 -99 -85 -25 -54 -25 -89 1 -142 28 -58
76 -87 144 -87 37 0 64 7 88 22 39 24 77 91 77 136 0 44 -38 112 -74 134 -38
24 -100 34 -137 22z"/>
<path d="M4777 7876 c-73 -27 -107 -76 -107 -154 0 -34 7 -59 23 -83 24 -37
97 -79 137 -79 37 0 110 40 134 73 31 42 29 140 -2 185 -42 58 -119 82 -185
58z"/>
<path d="M14513 7849 c-30 -19 -63 -80 -63 -117 1 -36 39 -101 69 -116 41 -22
109 -20 147 3 34 21 64 75 64 116 0 41 -30 95 -64 116 -41 25 -112 25 -153 -2z"/>
<path d="M5696 7830 c-66 -58 -69 -145 -7 -204 38 -37 112 -46 160 -22 69 36
92 131 48 197 -29 43 -60 59 -119 59 -39 0 -54 -6 -82 -30z"/>
<path d="M6864 7826 c-57 -25 -79 -85 -54 -150 21 -57 117 -74 169 -30 59 50
46 150 -23 179 -43 18 -52 18 -92 1z"/>
<path d="M13397 7820 c-36 -28 -50 -83 -33 -124 21 -49 50 -69 102 -69 37 0
51 5 75 29 24 25 30 39 31 79 0 43 -3 52 -31 77 -40 35 -105 39 -144 8z"/>
<path d="M12859 7815 c-83 -45 -47 -175 48 -175 47 0 72 16 89 56 12 29 12 39
0 68 -25 61 -81 82 -137 51z"/>
<path d="M7399 7791 c-66 -67 -3 -177 90 -156 41 9 71 49 71 95 0 84 -100 122
-161 61z"/>
<path d="M7935 7570 c-54 -21 -65 -98 -20 -137 69 -60 162 14 129 102 -7 17
-55 45 -76 44 -7 0 -22 -4 -33 -9z"/>
<path d="M12362 7573 c-22 -9 -44 -63 -37 -94 8 -37 40 -59 86 -59 71 0 105
85 54 135 -23 24 -69 32 -103 18z"/>
<path d="M6141 7419 c-90 -40 -95 -178 -9 -225 31 -18 93 -17 127 0 42 22 61
58 61 115 0 41 -5 57 -28 82 -37 42 -96 53 -151 28z"/>
<path d="M14094 7407 c-90 -82 -35 -217 89 -217 117 0 167 153 73 225 -50 38
-115 35 -162 -8z"/>
<path d="M7481 7246 c-55 -30 -66 -99 -23 -145 59 -64 162 -29 162 56 0 45
-14 69 -50 88 -35 18 -57 19 -89 1z"/>
<path d="M12787 7240 c-75 -59 -17 -184 78 -166 33 7 72 40 75 66 10 72 -25
120 -88 120 -24 0 -49 -8 -65 -20z"/>
<path d="M16649 7220 c-136 -72 -142 -258 -11 -337 56 -35 144 -32 203 6 124
78 112 263 -22 331 -49 25 -122 25 -170 0z"/>
<path d="M3576 7215 c-47 -17 -94 -59 -112 -102 -18 -41 -18 -114 0 -156 24
-59 111 -117 176 -117 61 0 146 53 176 111 18 35 18 120 0 162 -25 62 -113
118 -181 117 -11 -1 -37 -7 -59 -15z"/>
<path d="M13334 7141 c-114 -69 -12 -244 109 -186 39 18 57 50 57 101 0 46
-14 70 -50 89 -39 20 -79 19 -116 -4z"/>
<path d="M6914 7132 c-84 -68 -42 -192 66 -192 65 0 110 43 110 105 0 34 -25
82 -49 95 -31 16 -103 12 -127 -8z"/>
<path d="M12274 7116 c-76 -34 -48 -156 36 -156 82 0 112 118 39 155 -34 18
-36 18 -75 1z"/>
<path d="M8005 7094 c-31 -34 -32 -75 -2 -109 49 -57 147 -20 147 56 0 72 -96
106 -145 53z"/>
<path d="M14435 6941 c-49 -22 -75 -65 -75 -123 0 -104 96 -165 195 -124 103
43 99 208 -5 250 -51 20 -66 20 -115 -3z"/>
<path d="M5824 6936 c-58 -26 -95 -100 -80 -160 18 -71 103 -119 174 -98 144
43 125 251 -24 268 -22 2 -53 -2 -70 -10z"/>
<path d="M15352 6763 c-110 -54 -108 -229 3 -283 53 -26 98 -25 151 1 108 52
110 224 4 280 -43 23 -114 24 -158 2z"/>
<path d="M4870 6752 c-53 -26 -80 -74 -80 -141 0 -70 24 -113 81 -142 107 -54
227 13 237 133 3 44 0 59 -20 88 -52 76 -140 102 -218 62z"/>
<path d="M7673 6713 c-61 -12 -85 -112 -38 -158 33 -34 102 -35 133 -2 48 51
33 134 -29 156 -18 6 -35 10 -38 10 -3 -1 -16 -4 -28 -6z"/>
<path d="M12624 6708 c-26 -12 -44 -49 -44 -89 0 -45 48 -89 95 -89 27 0 44 8
66 29 79 79 -15 199 -117 149z"/>
<path d="M8240 6692 c-55 -8 -83 -68 -56 -120 8 -16 23 -32 31 -36 86 -33 160
56 105 126 -21 28 -42 36 -80 30z"/>
<path d="M12066 6679 c-49 -38 -28 -130 32 -144 43 -9 81 10 98 50 13 31 13
39 -1 65 -27 53 -82 66 -129 29z"/>
<path d="M13938 6604 c-76 -41 -77 -170 -2 -219 34 -22 105 -22 139 1 75 49
72 179 -5 219 -37 19 -97 19 -132 -1z"/>
<path d="M6291 6584 c-91 -76 -37 -224 81 -224 90 0 146 80 119 171 -23 77
-136 107 -200 53z"/>
<path d="M13123 6490 c-39 -23 -56 -74 -42 -126 24 -86 161 -99 197 -19 49
108 -55 206 -155 145z"/>
<path d="M7132 6484 c-25 -17 -52 -64 -52 -89 0 -37 34 -88 69 -102 75 -32
151 21 151 104 0 37 -5 50 -31 74 -36 34 -99 40 -137 13z"/>
<path d="M8476 6297 c-58 -58 -15 -156 62 -143 47 7 72 37 72 86 0 44 -23 68
-73 77 -29 4 -40 1 -61 -20z"/>
<path d="M11794 6305 c-48 -33 -32 -127 24 -142 44 -11 66 -6 90 22 64 75 -33
177 -114 120z"/>
<path d="M12344 6219 c-29 -15 -55 -63 -50 -93 11 -60 41 -86 101 -86 52 0 85
36 85 92 0 24 -6 50 -13 59 -28 36 -80 48 -123 28z"/>
<path d="M7927 6200 c-76 -60 -17 -183 79 -166 70 14 100 111 49 161 -31 32
-91 34 -128 5z"/>
<path d="M14119 6041 c-39 -38 -44 -55 -39 -125 6 -90 132 -142 209 -86 115
81 56 250 -88 250 -37 0 -49 -6 -82 -39z"/>
<path d="M6093 6050 c-41 -25 -63 -68 -63 -124 0 -80 68 -133 157 -123 38 4
54 12 81 42 33 35 34 40 30 98 -4 56 -8 63 -43 94 -31 27 -47 33 -84 33 -28 0
-59 -8 -78 -20z"/>
<path d="M8845 6000 c-29 -11 -42 -30 -48 -69 -5 -28 -1 -39 23 -62 37 -37 81
-39 115 -4 44 43 29 112 -29 135 -31 12 -34 12 -61 0z"/>
<path d="M11445 5985 c-42 -41 -33 -105 17 -131 58 -30 118 4 118 68 0 49 -35
88 -80 88 -19 0 -40 -9 -55 -25z"/>
<path d="M12789 5902 c-39 -19 -63 -72 -54 -118 8 -47 56 -84 108 -84 86 1
132 82 92 160 -26 51 -89 69 -146 42z"/>
<path d="M7478 5893 c-66 -41 -65 -147 2 -186 88 -53 187 27 159 129 -18 64
-102 94 -161 57z"/>
<path d="M16406 5888 c-126 -27 -187 -179 -117 -290 101 -159 354 -86 353 101
-1 26 -5 58 -10 72 -12 31 -58 86 -83 100 -33 17 -103 25 -143 17z"/>
<path d="M3838 5860 c-40 -21 -81 -70 -93 -109 -12 -38 -7 -119 9 -149 19 -36
65 -78 99 -91 46 -18 124 -13 167 9 22 11 52 39 67 62 24 35 28 52 28 108 0
56 -4 73 -28 109 -50 76 -167 104 -249 61z"/>
<path d="M13626 5849 c-56 -15 -105 -90 -89 -137 17 -56 29 -74 58 -92 59 -37
144 -18 178 39 60 101 -33 220 -147 190z"/>
<path d="M6653 5831 c-51 -32 -68 -67 -64 -138 2 -34 57 -91 96 -99 43 -8 96
10 126 42 20 21 24 36 24 85 0 52 -3 62 -30 89 -41 40 -107 50 -152 21z"/>
<path d="M8313 5785 c-54 -38 -50 -131 8 -160 41 -22 74 -18 108 11 26 22 31
33 31 70 0 36 -5 50 -26 69 -31 29 -87 33 -121 10z"/>
<path d="M11942 5777 c-16 -17 -22 -36 -22 -68 0 -60 29 -88 90 -91 36 -1 47
3 67 26 32 38 32 98 -2 131 -33 34 -102 35 -133 2z"/>
<path d="M9260 5772 c-62 -19 -82 -103 -34 -141 34 -27 84 -27 112 -1 25 24
30 85 10 113 -15 19 -66 36 -88 29z"/>
<path d="M11057 5766 c-34 -18 -51 -61 -38 -98 14 -40 38 -57 79 -58 42 0 82
38 82 78 0 61 -69 104 -123 78z"/>
<path d="M15014 5701 c-60 -28 -89 -73 -89 -141 1 -92 54 -154 140 -163 86 -9
157 43 176 129 11 47 10 56 -10 98 -40 81 -136 115 -217 77z"/>
<path d="M5249 5701 c-76 -25 -126 -100 -115 -174 17 -103 99 -160 200 -137
104 23 153 147 97 243 -31 54 -120 88 -182 68z"/>
<path d="M9679 5617 c-63 -48 -40 -137 39 -153 26 -5 36 -1 62 24 16 17 30 40
30 52 0 29 -26 76 -45 84 -26 10 -69 6 -86 -7z"/>
<path d="M10595 5605 c-52 -51 -15 -137 58 -137 44 0 73 22 82 62 18 80 -82
134 -140 75z"/>
<path d="M10133 5558 c-29 -32 -34 -53 -22 -88 29 -83 159 -60 159 29 0 70
-91 109 -137 59z"/>
<path d="M8778 5455 c-38 -21 -53 -73 -34 -118 17 -42 41 -57 91 -57 52 0 85
36 85 93 0 33 -6 49 -24 66 -30 28 -83 36 -118 16z"/>
<path d="M11498 5454 c-24 -12 -40 -42 -43 -79 -3 -27 20 -67 46 -80 60 -32
121 -10 137 50 25 89 -58 154 -140 109z"/>
<path d="M7942 5387 c-50 -29 -71 -107 -41 -155 36 -58 128 -66 175 -15 33 36
34 111 1 148 -27 32 -98 43 -135 22z"/>
<path d="M12324 5388 c-29 -13 -48 -51 -48 -94 0 -73 81 -128 148 -100 45 19
66 52 66 104 0 62 -41 102 -102 101 -24 0 -53 -5 -64 -11z"/>
<path d="M6592 5270 c-117 -27 -138 -196 -32 -252 72 -37 153 -12 191 62 33
62 4 147 -61 180 -42 21 -48 22 -98 10z"/>
<path d="M13679 5263 c-34 -21 -51 -49 -60 -98 -9 -50 7 -92 50 -128 38 -32
103 -37 152 -12 88 46 92 183 6 235 -39 24 -112 26 -148 3z"/>
<path d="M9289 5212 c-29 -26 -34 -36 -33 -72 2 -59 34 -90 91 -90 118 0 129
168 12 186 -31 5 -42 1 -70 -24z"/>
<path d="M10985 5228 c-33 -18 -45 -40 -45 -85 0 -57 33 -93 85 -93 50 0 74
15 91 57 35 83 -52 165 -131 121z"/>
<path d="M13140 5172 c-55 -9 -106 -83 -95 -140 23 -123 171 -154 235 -49 60
98 -22 209 -140 189z"/>
<path d="M7143 5150 c-78 -47 -84 -164 -10 -213 82 -54 189 -4 201 93 12 105
-101 175 -191 120z"/>
<path d="M9839 5091 c-21 -22 -29 -39 -29 -66 0 -51 44 -95 95 -95 51 0 95 44
95 95 0 51 -44 95 -95 95 -27 0 -44 -8 -66 -29z"/>
<path d="M10409 5091 c-21 -22 -29 -39 -29 -66 0 -51 44 -95 95 -95 51 0 95
44 95 95 0 51 -44 95 -95 95 -27 0 -44 -8 -66 -29z"/>
<path d="M8494 4982 c-93 -59 -52 -202 58 -202 32 0 47 7 75 35 33 33 35 39
30 81 -9 85 -93 129 -163 86z"/>
<path d="M11774 4989 c-59 -29 -70 -132 -20 -176 39 -33 89 -39 128 -16 43 25
60 59 54 108 -9 75 -92 118 -162 84z"/>
<path d="M14479 4741 c-99 -32 -144 -133 -99 -225 28 -60 78 -90 145 -90 67 0
117 30 145 90 36 73 11 163 -55 204 -37 23 -100 32 -136 21z"/>
<path d="M5783 4719 c-70 -34 -104 -115 -81 -191 15 -52 77 -108 121 -109 92
-3 135 14 168 67 51 83 23 189 -61 232 -55 28 -93 28 -147 1z"/>
<path d="M9121 4706 c-70 -39 -68 -156 4 -191 42 -19 68 -19 106 1 51 26 70
97 40 152 -25 47 -99 66 -150 38z"/>
<path d="M11141 4704 c-54 -38 -61 -122 -13 -169 32 -33 62 -40 106 -25 117
38 94 210 -28 210 -23 0 -52 -7 -65 -16z"/>
<path d="M15827 4626 c-138 -51 -170 -234 -58 -329 93 -77 238 -50 292 55 29
56 27 135 -3 189 -42 75 -150 115 -231 85z"/>
<path d="M4465 4623 c-53 -9 -67 -16 -101 -45 -46 -40 -64 -83 -64 -148 0
-111 80 -190 192 -190 133 0 223 136 174 265 -15 38 -73 104 -94 105 -4 1 -25
4 -47 8 -22 4 -49 6 -60 5z"/>
<path d="M12493 4599 c-88 -44 -97 -155 -17 -218 84 -66 219 21 199 127 -8 41
-63 102 -93 102 -11 0 -26 2 -34 5 -7 3 -32 -4 -55 -16z"/>
<path d="M7775 4596 c-82 -35 -95 -151 -24 -210 83 -70 209 -13 209 94 0 47
-18 80 -59 107 -38 26 -81 29 -126 9z"/>
<path d="M13068 4578 c-103 -59 -83 -215 32 -249 44 -13 108 1 134 30 64 70
42 193 -39 227 -47 19 -84 17 -127 -8z"/>
<path d="M7174 4571 c-47 -29 -64 -59 -64 -114 0 -85 49 -137 130 -137 81 0
140 57 140 135 0 105 -116 171 -206 116z"/>
<path d="M9804 4570 c-79 -32 -85 -164 -9 -198 65 -30 133 -2 155 63 30 90
-58 171 -146 135z"/>
<path d="M10474 4561 c-59 -36 -66 -129 -15 -175 46 -41 139 -27 166 25 26 49
19 97 -19 135 -40 40 -83 45 -132 15z"/>
<path d="M11783 4189 c-82 -24 -113 -139 -55 -208 35 -42 106 -54 157 -27 91
49 86 184 -8 227 -47 21 -49 21 -94 8z"/>
<path d="M8493 4170 c-61 -37 -81 -118 -44 -174 27 -41 57 -55 117 -56 47 0
55 3 82 34 38 43 46 81 30 131 -25 75 -116 107 -185 65z"/>
<path d="M12332 4041 c-129 -61 -79 -261 65 -261 99 0 166 121 113 207 -40 66
-108 86 -178 54z"/>
<path d="M7913 4029 c-63 -40 -81 -137 -35 -198 59 -81 192 -68 233 22 24 54
24 81 -3 128 -37 67 -130 90 -195 48z"/>
<path d="M10990 3926 c-141 -35 -111 -246 35 -246 74 0 125 49 125 120 0 94
-69 149 -160 126z"/>
<path d="M9289 3914 c-79 -51 -78 -178 1 -219 16 -8 50 -15 76 -15 39 0 51 5
80 34 31 31 34 40 34 90 0 47 -4 61 -28 87 -24 27 -37 33 -83 36 -39 3 -61 -1
-80 -13z"/>
<path d="M13748 3910 c-81 -14 -128 -72 -128 -160 0 -71 26 -115 83 -140 79
-36 153 -20 203 46 24 31 29 47 29 95 0 43 -5 65 -21 85 -44 59 -102 85 -166
74z"/>
<path d="M6562 3900 c-42 -10 -96 -61 -109 -103 -24 -82 9 -161 83 -197 55
-27 110 -22 165 15 98 64 83 227 -25 276 -44 20 -62 21 -114 9z"/>
<path d="M10102 3806 c-38 -43 -46 -81 -30 -131 33 -101 172 -114 228 -22 33
54 23 117 -26 162 -22 21 -37 25 -84 25 -53 0 -60 -3 -88 -34z"/>
<path d="M8771 3662 c-53 -26 -76 -65 -75 -123 1 -87 68 -147 149 -134 145 21
168 213 32 264 -40 15 -67 14 -106 -7z"/>
<path d="M11483 3660 c-45 -27 -65 -62 -65 -113 0 -88 53 -140 139 -139 102 2
162 103 117 198 -33 68 -125 95 -191 54z"/>
<path d="M14984 3494 c-54 -35 -87 -88 -92 -149 -6 -71 36 -149 97 -182 51
-26 124 -31 174 -9 59 24 117 111 117 176 0 65 -58 152 -117 176 -54 23 -133
18 -179 -12z"/>
<path d="M5215 3493 c-77 -40 -109 -99 -103 -188 5 -74 36 -123 98 -155 72
-37 181 -20 232 37 53 58 63 161 23 229 -49 83 -169 120 -250 77z"/>
<path d="M9671 3472 c-52 -26 -75 -63 -75 -121 0 -141 172 -191 251 -72 44 66
20 156 -52 191 -51 25 -80 25 -124 2z"/>
<path d="M10595 3476 c-68 -30 -97 -105 -69 -176 42 -105 177 -117 241 -21 74
111 -49 251 -172 197z"/>
<path d="M12815 3244 c-46 -16 -62 -30 -86 -75 -84 -166 118 -317 254 -190 37
35 41 43 44 97 5 67 -14 115 -59 147 -36 27 -108 37 -153 21z"/>
<path d="M7440 3228 c-116 -60 -117 -228 -1 -285 108 -52 231 22 231 139 0 94
-51 155 -138 164 -37 4 -57 0 -92 -18z"/>
<path d="M8508 2790 c-81 -14 -128 -72 -128 -160 0 -36 6 -66 19 -86 23 -37
94 -74 142 -74 77 1 158 82 159 159 0 44 -33 110 -66 135 -34 24 -80 34 -126
26z"/>
<path d="M11790 2789 c-62 -25 -100 -85 -100 -157 0 -160 217 -216 298 -76 28
48 26 130 -4 172 -41 56 -133 85 -194 61z"/>
<path d="M13979 2580 c-141 -74 -146 -264 -9 -339 78 -43 172 -29 231 36 40
42 49 66 49 128 0 58 -22 116 -57 147 -53 48 -151 61 -214 28z"/>
<path d="M6232 2569 c-129 -64 -136 -252 -13 -331 41 -26 53 -29 112 -26 105
6 168 64 179 165 4 32 1 68 -6 89 -36 106 -167 155 -272 103z"/>
<path d="M10718 2560 c-118 -34 -164 -162 -93 -256 47 -62 117 -79 195 -48
118 47 124 231 10 289 -36 18 -81 24 -112 15z"/>
<path d="M9551 2538 c-58 -39 -76 -72 -76 -138 0 -90 53 -149 143 -158 99 -9
173 58 174 157 0 94 -54 152 -149 159 -48 3 -64 0 -92 -20z"/>
<path d="M7468 1900 c-106 -33 -166 -136 -139 -238 40 -147 235 -190 334 -73
58 70 60 164 5 244 -37 52 -139 87 -200 67z"/>
<path d="M12801 1900 c-102 -43 -148 -156 -106 -257 20 -49 41 -71 90 -95 71
-37 168 -22 223 35 39 40 52 75 52 138 0 105 -73 180 -178 186 -32 1 -68 -2
-81 -7z"/>
<path d="M11535 1480 c-111 -17 -175 -101 -162 -213 11 -90 78 -156 167 -165
89 -8 172 40 202 117 14 37 11 127 -6 160 -20 38 -80 89 -114 97 -15 3 -31 7
-37 8 -5 1 -28 -1 -50 -4z"/>
<path d="M8742 1463 c-72 -35 -121 -127 -107 -202 10 -56 49 -114 93 -139 55
-30 139 -30 194 0 106 60 125 224 35 308 -52 50 -151 65 -215 33z"/>
<path d="M10115 1321 c-165 -76 -145 -316 30 -360 145 -36 269 87 235 231 -29
117 -156 179 -265 129z"/>
</g>
</svg>
